<svg width="344" height="86" viewBox="0 0 344 86" fill="none" xmlns="http://www.w3.org/2000/svg">
<path d="M8.792 35.884V39.016H16.712V45.028H8.792V48.628H17.792V55H0.8V29.512H17.792V35.884H8.792ZM30.7759 55.252C27.7279 55.252 25.2079 54.544 23.2159 53.128C21.2479 51.688 20.1799 49.588 20.0119 46.828H28.5079C28.6279 48.292 29.2759 49.024 30.4519 49.024C30.8839 49.024 31.2439 48.928 31.5319 48.736C31.8439 48.52 31.9999 48.196 31.9999 47.764C31.9999 47.164 31.6759 46.684 31.0279 46.324C30.3799 45.94 29.3719 45.508 28.0039 45.028C26.3719 44.452 25.0159 43.888 23.9359 43.336C22.8799 42.784 21.9679 41.98 21.1999 40.924C20.4319 39.868 20.0599 38.512 20.0839 36.856C20.0839 35.2 20.5039 33.796 21.3439 32.644C22.2079 31.468 23.3719 30.58 24.8359 29.98C26.3239 29.38 27.9919 29.08 29.8399 29.08C32.9599 29.08 35.4319 29.8 37.2559 31.24C39.1039 32.68 40.0759 34.708 40.1719 37.324H31.5679C31.5439 36.604 31.3639 36.088 31.0279 35.776C30.6919 35.464 30.2839 35.308 29.8039 35.308C29.4679 35.308 29.1919 35.428 28.9759 35.668C28.7599 35.884 28.6519 36.196 28.6519 36.604C28.6519 37.18 28.9639 37.66 29.5879 38.044C30.2359 38.404 31.2559 38.848 32.6479 39.376C34.2559 39.976 35.5759 40.552 36.6079 41.104C37.6639 41.656 38.5759 42.424 39.3439 43.408C40.1119 44.392 40.4959 45.628 40.4959 47.116C40.4959 48.676 40.1119 50.08 39.3439 51.328C38.5759 52.552 37.4599 53.512 35.9959 54.208C34.5319 54.904 32.7919 55.252 30.7759 55.252ZM64.1479 38.26C64.1479 39.868 63.7759 41.332 63.0319 42.652C62.2879 43.948 61.1839 44.98 59.7199 45.748C58.2799 46.516 56.5279 46.9 54.4639 46.9H51.2959V55H43.3039V29.512H54.4639C57.5839 29.512 59.9719 30.304 61.6279 31.888C63.3079 33.472 64.1479 35.596 64.1479 38.26ZM53.5639 40.6C55.2199 40.6 56.0479 39.82 56.0479 38.26C56.0479 36.7 55.2199 35.92 53.5639 35.92H51.2959V40.6H53.5639ZM79.4988 55L74.7108 45.856H74.6748V55H66.6828V29.512H78.5628C80.6268 29.512 82.3908 29.884 83.8548 30.628C85.3188 31.348 86.4108 32.344 87.1308 33.616C87.8748 34.864 88.2468 36.28 88.2468 37.864C88.2468 39.568 87.7668 41.08 86.8068 42.4C85.8708 43.72 84.5148 44.668 82.7388 45.244L88.2828 55H79.4988ZM74.6748 40.528H77.8428C78.6108 40.528 79.1868 40.36 79.5708 40.024C79.9548 39.664 80.1468 39.112 80.1468 38.368C80.1468 37.696 79.9428 37.168 79.5348 36.784C79.1508 36.4 78.5868 36.208 77.8428 36.208H74.6748V40.528ZM98.792 35.884V39.016H106.712V45.028H98.792V48.628H107.792V55H90.8V29.512H107.792V35.884H98.792ZM120.776 55.252C117.728 55.252 115.208 54.544 113.216 53.128C111.248 51.688 110.18 49.588 110.012 46.828H118.508C118.628 48.292 119.276 49.024 120.452 49.024C120.884 49.024 121.244 48.928 121.532 48.736C121.844 48.52 122 48.196 122 47.764C122 47.164 121.676 46.684 121.028 46.324C120.38 45.94 119.372 45.508 118.004 45.028C116.372 44.452 115.016 43.888 113.936 43.336C112.88 42.784 111.968 41.98 111.2 40.924C110.432 39.868 110.06 38.512 110.084 36.856C110.084 35.2 110.504 33.796 111.344 32.644C112.208 31.468 113.372 30.58 114.836 29.98C116.324 29.38 117.992 29.08 119.84 29.08C122.96 29.08 125.432 29.8 127.256 31.24C129.104 32.68 130.076 34.708 130.172 37.324H121.568C121.544 36.604 121.364 36.088 121.028 35.776C120.692 35.464 120.284 35.308 119.804 35.308C119.468 35.308 119.192 35.428 118.976 35.668C118.76 35.884 118.652 36.196 118.652 36.604C118.652 37.18 118.964 37.66 119.588 38.044C120.236 38.404 121.256 38.848 122.648 39.376C124.256 39.976 125.576 40.552 126.608 41.104C127.664 41.656 128.576 42.424 129.344 43.408C130.112 44.392 130.496 45.628 130.496 47.116C130.496 48.676 130.112 50.08 129.344 51.328C128.576 52.552 127.46 53.512 125.996 54.208C124.532 54.904 122.792 55.252 120.776 55.252ZM143.276 55.252C140.228 55.252 137.708 54.544 135.716 53.128C133.748 51.688 132.68 49.588 132.512 46.828H141.008C141.128 48.292 141.776 49.024 142.952 49.024C143.384 49.024 143.744 48.928 144.032 48.736C144.344 48.52 144.5 48.196 144.5 47.764C144.5 47.164 144.176 46.684 143.528 46.324C142.88 45.94 141.872 45.508 140.504 45.028C138.872 44.452 137.516 43.888 136.436 43.336C135.38 42.784 134.468 41.98 133.7 40.924C132.932 39.868 132.56 38.512 132.584 36.856C132.584 35.2 133.004 33.796 133.844 32.644C134.708 31.468 135.872 30.58 137.336 29.98C138.824 29.38 140.492 29.08 142.34 29.08C145.46 29.08 147.932 29.8 149.756 31.24C151.604 32.68 152.576 34.708 152.672 37.324H144.068C144.044 36.604 143.864 36.088 143.528 35.776C143.192 35.464 142.784 35.308 142.304 35.308C141.968 35.308 141.692 35.428 141.476 35.668C141.26 35.884 141.152 36.196 141.152 36.604C141.152 37.18 141.464 37.66 142.088 38.044C142.736 38.404 143.756 38.848 145.148 39.376C146.756 39.976 148.076 40.552 149.108 41.104C150.164 41.656 151.076 42.424 151.844 43.408C152.612 44.392 152.996 45.628 152.996 47.116C152.996 48.676 152.612 50.08 151.844 51.328C151.076 52.552 149.96 53.512 148.496 54.208C147.032 54.904 145.292 55.252 143.276 55.252ZM168.224 55.252C165.824 55.252 163.616 54.688 161.6 53.56C159.608 52.432 158.024 50.872 156.848 48.88C155.672 46.888 155.084 44.644 155.084 42.148C155.084 39.652 155.672 37.408 156.848 35.416C158.024 33.424 159.608 31.876 161.6 30.772C163.616 29.644 165.824 29.08 168.224 29.08C170.624 29.08 172.82 29.644 174.812 30.772C176.804 31.876 178.376 33.424 179.528 35.416C180.704 37.408 181.292 39.652 181.292 42.148C181.292 44.644 180.704 46.888 179.528 48.88C178.376 50.872 176.792 52.432 174.776 53.56C172.784 54.688 170.6 55.252 168.224 55.252ZM168.224 47.8C169.808 47.8 171.032 47.296 171.896 46.288C172.76 45.256 173.192 43.876 173.192 42.148C173.192 40.396 172.76 39.016 171.896 38.008C171.032 36.976 169.808 36.46 168.224 36.46C166.616 36.46 165.38 36.976 164.516 38.008C163.652 39.016 163.22 40.396 163.22 42.148C163.22 43.876 163.652 45.256 164.516 46.288C165.38 47.296 166.616 47.8 168.224 47.8ZM198.428 52.168C197.228 52.168 196.172 51.64 195.068 51.256C195.164 51.112 195.26 51.016 195.356 50.824C194.396 50.152 193.868 49.048 192.668 48.664C192.38 48.568 192.188 48.184 191.948 47.944C191.612 47.56 191.276 47.128 190.988 46.744C190.844 46.552 190.796 46.312 190.748 46.12C190.7 45.688 190.7 45.304 190.652 44.872C189.74 44.824 188.684 45.592 187.868 44.44C187.916 44.104 187.916 43.672 187.964 43.192C188.3 42.952 188.636 42.712 188.972 42.424L188.924 42.472C189.932 42.52 190.988 42.568 191.9 41.992C192.188 41.848 192.524 41.704 192.716 41.464C193.628 40.456 194.684 39.592 195.836 38.872C196.844 38.152 197.804 37.384 198.524 36.376C198.812 35.944 199.148 35.608 199.532 35.32C200.348 34.696 201.164 34.12 201.98 33.592C202.988 32.92 204.044 32.344 205.1 31.768C205.772 31.384 206.444 31.384 207.116 31.768C207.548 32.008 207.98 32.2 208.364 32.392C208.172 32.536 207.692 32.104 207.74 32.92L208.364 32.392C209.756 33.112 210.044 34.024 209.42 35.416C209.036 36.28 208.46 36.952 207.788 37.576C205.916 39.304 203.756 40.648 201.548 41.944C199.388 43.192 197.036 43.96 194.828 44.92C194.588 45.016 194.3 45.112 194.108 45.208C194.156 47.752 195.596 48.904 199.244 49.192C199.1 49.048 199.052 48.904 198.908 48.76C199.916 48.568 200.876 48.472 201.788 48.184C202.7 47.944 203.612 47.512 204.62 47.176C205.004 47.416 205.484 47.752 205.964 48.136C206.876 48.856 206.876 50.056 205.916 50.584C204.14 51.64 202.22 52.168 200.156 52.168H198.428ZM197.276 40.696C199.1 40.024 201.212 38.68 202.076 37.768L201.932 37.192C200.156 38.2 198.62 39.352 197.276 40.696ZM193.004 46.312C193.052 45.928 193.1 45.688 193.148 45.448C192.716 45.64 192.86 45.928 193.004 46.312ZM207.322 56.296C207.178 55.912 207.13 55.72 206.986 55.432C206.794 55.672 206.65 55.864 206.41 56.248C206.266 55.864 206.074 55.624 206.122 55.432C206.314 54.952 206.554 54.52 206.794 54.04C206.554 53.896 206.362 53.8 206.074 53.704C206.554 53.08 206.986 52.504 207.37 51.88C208.57 49.912 209.674 47.896 210.874 45.88C211.69 44.536 212.602 43.192 213.466 41.848C213.562 41.704 213.658 41.56 213.706 41.368C214.186 40.216 214.618 39.016 215.146 37.864C216.73 34.072 218.362 30.232 219.994 26.44C220.714 24.664 221.482 22.936 222.202 21.16C222.73 19.864 223.162 18.568 223.546 17.272C224.554 13.912 225.946 10.696 226.618 7.24C226.762 6.664 226.858 6.04 226.954 5.464C227.002 5.224 227.05 4.984 226.954 4.84C226.042 3.304 226.954 2.152 227.626 0.855999C228.106 1.192 228.49 1.384 228.826 1.62399C229.834 2.248 230.362 3.16 230.458 4.36C230.554 6.27999 230.17 8.2 229.546 9.976C227.674 15.4 225.754 20.776 223.786 26.152C222.442 29.752 221.002 33.304 219.514 36.808C217.978 40.36 216.202 43.768 214.234 47.08C212.746 49.576 211.354 52.12 209.866 54.664C209.674 55 209.434 55.288 209.098 55.576C209.29 54.568 210.058 53.896 210.538 53.032C210.97 52.12 211.594 51.256 212.074 50.344C212.554 49.528 212.938 48.616 213.514 47.56C213.13 47.8 212.986 47.896 212.602 48.088C212.842 47.416 212.986 46.936 213.226 46.456L217.162 38.776C217.354 38.488 217.45 38.2 217.642 37.864C217.018 37.864 216.97 38.392 216.778 38.68C215.482 41.224 214.234 43.768 212.842 46.312C211.066 49.624 209.242 52.888 207.322 56.296ZM223.738 25.192C223.786 25.144 223.786 25.048 223.834 25L223.642 24.952C223.594 25 223.594 25.096 223.546 25.144C223.594 25.192 223.69 25.24 223.738 25.192ZM231.288 52.168C230.088 52.168 229.032 51.64 227.928 51.256C228.024 51.112 228.12 51.016 228.216 50.824C227.256 50.152 226.728 49.048 225.528 48.664C225.24 48.568 225.048 48.184 224.808 47.944C224.472 47.56 224.136 47.128 223.848 46.744C223.704 46.552 223.656 46.312 223.608 46.12C223.56 45.688 223.56 45.304 223.512 44.872C222.6 44.824 221.544 45.592 220.728 44.44C220.776 44.104 220.776 43.672 220.824 43.192C221.16 42.952 221.496 42.712 221.832 42.424L221.784 42.472C222.792 42.52 223.848 42.568 224.76 41.992C225.048 41.848 225.384 41.704 225.576 41.464C226.488 40.456 227.544 39.592 228.696 38.872C229.704 38.152 230.664 37.384 231.384 36.376C231.672 35.944 232.008 35.608 232.392 35.32C233.208 34.696 234.024 34.12 234.84 33.592C235.848 32.92 236.904 32.344 237.96 31.768C238.632 31.384 239.304 31.384 239.976 31.768C240.408 32.008 240.84 32.2 241.224 32.392C241.032 32.536 240.552 32.104 240.6 32.92L241.224 32.392C242.616 33.112 242.904 34.024 242.28 35.416C241.896 36.28 241.32 36.952 240.648 37.576C238.776 39.304 236.616 40.648 234.408 41.944C232.248 43.192 229.896 43.96 227.688 44.92C227.448 45.016 227.16 45.112 226.968 45.208C227.016 47.752 228.456 48.904 232.104 49.192C231.96 49.048 231.912 48.904 231.768 48.76C232.776 48.568 233.736 48.472 234.648 48.184C235.56 47.944 236.472 47.512 237.48 47.176C237.864 47.416 238.344 47.752 238.824 48.136C239.736 48.856 239.736 50.056 238.776 50.584C237 51.64 235.08 52.168 233.016 52.168H231.288ZM230.136 40.696C231.96 40.024 234.072 38.68 234.936 37.768L234.792 37.192C233.016 38.2 231.48 39.352 230.136 40.696ZM225.864 46.312C225.912 45.928 225.96 45.688 226.008 45.448C225.576 45.64 225.72 45.928 225.864 46.312ZM234.565 85.24C233.269 85.912 232.021 85.72 230.677 85.144C228.277 84.088 227.557 82.216 227.461 79.912C227.413 78.712 227.605 77.464 227.653 76.504L228.517 75.304C228.757 74.968 228.949 74.68 229.141 74.344C228.757 73.048 228.997 71.752 229.381 70.6C231.253 65.176 233.893 60.184 237.253 55.576C237.685 54.952 238.165 54.28 239.125 54.184C239.557 54.712 240.325 55 240.277 55.96L241.189 56.104C241.909 57.16 241.909 58.36 241.669 59.608C240.901 59.656 240.229 59.752 239.557 59.8C238.981 59.8 238.501 59.944 238.261 60.472C237.685 61.576 236.773 62.392 236.101 63.4C235.477 64.264 234.901 65.224 234.517 66.232C233.749 68.296 233.077 70.456 232.357 72.52C231.445 75.064 231.109 77.704 230.965 80.344C230.965 80.776 231.109 81.16 231.205 81.688C232.741 81.544 233.941 80.872 234.901 80.008C236.629 78.52 238.357 77.032 239.653 75.16C243.541 69.448 247.381 63.736 250.357 57.496C251.509 55 252.421 52.408 253.429 49.864C253.525 49.72 253.525 49.528 253.573 49.192C253.189 49.384 252.949 49.48 252.709 49.624C252.133 49.864 251.557 50.2 250.933 50.44C248.821 51.208 246.997 50.776 245.461 49.192C245.989 48.952 245.989 48.952 245.461 48.472V49.24C244.597 48.568 244.453 47.704 244.693 46.6C245.029 45.064 245.797 43.72 246.661 42.52C248.197 40.408 250.021 38.632 252.277 37.24C253.093 36.76 253.909 36.472 254.869 36.376C255.541 36.328 256.213 36.184 256.933 36.136C257.893 36.04 258.709 36.376 259.333 37.144C259.573 37.48 259.957 37.72 260.341 37.96C261.733 38.776 262.405 39.976 262.453 41.608C262.453 42.136 262.645 42.856 262.405 43.096C261.925 43.576 262.405 44.056 262.021 44.44C261.589 44.872 261.301 45.4 260.869 45.976C260.725 45.352 261.205 45.016 261.541 44.392C260.533 45.016 259.765 44.2 258.805 44.392C258.469 44.008 258.661 43.528 258.757 43C258.901 42.04 259.141 41.032 258.373 40.072C256.741 39.832 255.349 40.504 253.957 41.224C253.141 41.656 252.373 42.328 251.653 42.904C250.885 43.528 250.213 44.152 249.493 44.824C249.205 45.112 249.013 45.496 248.869 46.024C249.157 45.928 249.445 45.88 249.733 45.736C250.789 45.16 251.797 44.584 252.805 44.008C254.053 43.336 254.149 43.384 255.205 44.296L255.445 44.44C257.365 45.496 257.365 47.272 256.789 49C255.925 51.736 254.869 54.424 253.813 57.112C252.373 60.76 250.549 64.264 248.533 67.624C247.141 69.928 245.605 72.184 244.165 74.44C243.973 74.728 243.829 74.968 243.541 75.304C243.445 75.256 243.349 75.16 243.205 75.112C241.813 76.84 240.421 78.616 238.933 80.392C239.077 80.44 239.221 80.488 239.365 80.584C238.453 82.84 236.629 84.184 234.565 85.24ZM253.669 47.464L253.717 47.416C253.669 47.32 253.621 47.272 253.621 47.224L253.477 47.368C253.525 47.416 253.573 47.416 253.669 47.464ZM247.813 48.808C249.253 49.144 249.637 49.048 250.741 48.232C250.165 48.04 248.869 48.28 247.813 48.808ZM241.477 73.24C241.573 73.192 241.621 73.192 241.669 73.144V72.952C241.573 72.952 241.525 73 241.477 73.048C241.429 73.096 241.477 73.192 241.477 73.24ZM228.805 76.408C228.853 76.312 228.901 76.168 228.901 76.024L228.853 75.688C228.805 75.688 228.757 75.736 228.757 75.736C228.757 75.976 228.757 76.168 228.805 76.408ZM231.349 83.08C231.541 82.984 231.589 82.984 231.589 82.936C231.589 82.888 231.589 82.84 231.541 82.84C231.349 82.648 231.157 82.504 230.917 82.36C230.869 82.408 230.821 82.456 230.773 82.552C230.965 82.744 231.157 82.936 231.349 83.08ZM232.789 84.328C233.269 84.184 233.701 83.992 234.181 83.8C233.509 83.464 233.077 83.752 232.789 84.328ZM266.883 42.712C265.107 43.96 263.907 45.736 262.515 47.368C262.131 47.848 261.891 48.472 261.411 49.288C262.563 48.664 263.475 48.136 264.339 47.464C267.459 45.112 270.579 42.76 273.747 40.408L276.099 38.536C276.387 38.344 276.723 38.248 277.059 38.056L277.779 39.688C278.403 39.544 278.883 38.872 279.603 39.352C280.467 40.552 280.035 41.752 279.603 42.952C279.315 43.72 278.931 44.44 278.547 45.16L274.515 53.272C274.371 53.56 274.179 53.848 273.987 54.184C273.555 53.656 273.891 53.176 274.035 52.744C274.275 52.168 274.515 51.592 274.803 51.016C275.427 50.152 275.955 49.24 276.291 48.232C275.619 49.048 274.755 49.816 274.803 51.016C274.179 51.304 273.987 51.928 273.699 52.504C273.363 53.224 273.027 53.944 272.595 54.808L271.827 53.944C271.683 54.04 271.491 54.136 271.203 54.28C271.011 54.088 270.819 53.896 270.579 53.704C270.819 52.84 271.347 52.12 271.107 51.16C271.059 50.92 271.299 50.632 271.443 50.344L273.699 45.928C273.795 45.688 273.891 45.4 274.131 44.872L270.003 47.8C269.859 47.8 269.715 47.8 269.571 47.848C269.091 47.704 268.995 47.752 268.611 48.376C268.803 48.328 269.091 48.28 269.331 48.28C269.715 48.424 269.955 48.232 270.147 47.944C270.579 47.752 271.011 47.608 271.683 47.368C269.571 49.24 267.411 50.632 265.251 51.976C264.099 52.696 262.899 53.272 261.699 53.896C260.211 54.664 258.723 54.424 257.283 53.848C256.563 53.56 256.275 52.984 256.323 52.168C256.371 50.488 256.899 48.952 257.763 47.608C258.819 46.072 259.875 44.584 261.075 43.192C263.619 40.264 266.451 37.624 269.667 35.416C270.819 34.648 272.115 34.12 273.459 33.784C274.035 33.64 274.515 33.256 275.091 32.968C275.667 32.68 276.243 32.344 276.867 32.2C277.875 31.912 278.547 32.584 279.171 33.304C278.979 33.256 278.787 33.16 278.499 33.064C278.451 33.304 278.355 33.544 278.307 33.88C278.739 33.928 279.171 34.024 279.555 34.072C280.515 35.032 280.803 36.088 280.227 37.384C279.171 37.864 279.075 37.816 278.451 36.904C278.259 37 278.019 37.096 277.779 37.24C277.635 37.096 277.443 37 277.299 36.856C277.203 36.712 277.155 36.568 277.011 36.28C276.387 36.568 275.763 36.76 275.235 37.096C273.411 38.248 271.539 39.448 269.763 40.648C268.755 41.272 267.843 42.04 266.883 42.712ZM268.467 48.472L268.083 48.616C268.131 48.664 268.179 48.712 268.179 48.808L268.467 48.472ZM262.755 50.392L261.651 50.92C261.939 51.016 262.131 51.112 262.323 51.16C262.419 50.968 262.515 50.776 262.755 50.392ZM259.875 51.88C260.643 52.168 260.883 52.072 260.739 51.688C260.451 51.784 260.163 51.832 259.875 51.88ZM299.638 38.344C300.55 39.688 300.982 41.224 300.55 42.904C299.686 46.168 298.87 49.384 298.054 52.648L297.478 54.904C297.382 55.336 297.286 55.816 297.43 56.2C297.67 57.16 297.43 57.88 296.662 58.648C296.086 58.936 295.366 59.08 294.79 58.408C294.646 58.216 294.406 58.168 294.214 58.072C293.302 57.64 293.062 57.208 293.254 56.248L294.502 51.112C294.838 49.672 295.222 48.28 295.654 46.84C295.846 46.024 295.942 45.112 296.614 44.44C296.758 44.344 296.854 44.056 296.854 43.864C297.046 43.336 297.19 42.712 297.286 42.136C297.334 41.608 297.238 41.128 297.19 40.6C296.326 40.456 295.702 40.696 295.078 40.984C291.094 42.808 287.686 45.4 284.806 48.712C284.566 49 284.23 49.384 283.846 49.528C283.126 49.816 282.742 49.48 282.79 48.712C282.934 47.752 283.174 46.792 283.414 45.832C283.846 43.816 284.902 41.992 285.814 40.168L287.11 37.72C287.014 37.72 286.822 37.768 286.582 37.768C287.446 36.136 288.262 34.504 289.606 33.112C289.894 33.352 290.038 33.496 290.326 33.832C289.894 34.216 289.51 34.552 289.126 34.936C289.654 35.8 289.462 36.76 289.27 37.72C289.99 36.664 290.758 35.8 291.478 34.696C291.526 34.888 291.574 35.128 291.574 35.32C291.574 35.512 291.334 35.752 291.382 35.8C292.006 36.76 291.286 37.336 290.758 37.96C290.422 38.44 290.134 39.016 289.99 39.592L292.582 38.296C292.39 38.824 292.294 39.016 292.15 39.448C292.87 39.208 293.542 38.968 294.262 38.68C294.022 38.488 293.878 38.392 293.686 38.296C295.51 35.752 298.486 36.664 299.638 38.344ZM287.206 37.672C287.542 37.528 287.878 37.336 287.59 36.856C287.494 37.048 287.35 37.144 287.206 37.336C287.158 37.432 287.206 37.528 287.206 37.672ZM304.848 52.936C303.984 52.984 303.168 53.032 302.4 52.6C302.208 52.504 301.968 52.456 301.776 52.456C299.712 52.264 298.944 51.208 299.376 49.192C299.424 48.904 299.52 48.616 299.52 48.328C299.424 46.552 300.096 45.064 301.104 43.624C301.296 43.336 301.392 43.048 301.584 42.76C301.872 42.52 302.256 42.28 302.16 41.8C302.208 41.752 302.208 41.704 302.304 41.656C302.88 41.416 303.312 40.984 303.456 40.312L304.56 39.304C304.704 39.256 304.896 39.208 305.04 39.112C305.952 38.344 306.912 37.624 307.824 36.856C308.256 36.52 308.592 36.184 308.976 35.848C309.072 35.752 309.216 35.704 309.216 35.656C309.12 34.696 309.888 34.648 310.416 34.36C312 33.448 313.68 32.92 315.456 32.536C315.936 32.44 316.464 32.488 316.992 32.44C317.376 32.44 317.712 32.536 317.952 32.824C318.336 33.304 318.912 33.448 319.488 33.544C321.264 33.832 322.416 35.752 321.936 37.432C321.792 37.864 321.696 38.344 321.12 38.488C320.736 38.584 320.544 38.488 320.016 37.816C319.872 37.912 319.776 37.96 319.536 38.152C319.392 37.912 319.2 37.72 319.104 37.48C319.008 37.336 319.104 37.144 319.056 36.952C319.008 36.04 318.672 35.704 317.76 35.752C316.512 35.8 315.312 36.088 314.16 36.568C313.296 36.904 312.432 37.24 311.664 37.72C309.216 39.208 306.768 40.744 304.848 42.952C303.648 44.344 302.688 45.88 302.016 47.608C301.824 48.088 301.776 48.664 301.632 49.288C302.16 49.384 302.592 49.528 302.976 49.48C307.2 49.24 311.04 47.896 314.4 45.256C315.264 44.584 315.888 43.72 316.704 42.856C316.992 43.24 317.712 43.096 318.048 43.672C318.48 43.624 318.528 44.008 318.624 44.296C318.672 44.632 318.72 44.968 318.624 45.256C318.336 46.216 317.664 46.936 316.992 47.656C315.456 49.24 313.584 50.296 311.568 51.16C309.456 52.072 307.2 52.744 304.848 52.936ZM300.96 51.544C300.48 50.728 300.192 50.152 299.808 49.528C299.616 50.68 299.76 50.92 300.96 51.544ZM331.834 52.168C330.634 52.168 329.578 51.64 328.474 51.256C328.57 51.112 328.666 51.016 328.762 50.824C327.802 50.152 327.274 49.048 326.074 48.664C325.786 48.568 325.594 48.184 325.354 47.944C325.018 47.56 324.682 47.128 324.394 46.744C324.25 46.552 324.202 46.312 324.154 46.12C324.106 45.688 324.106 45.304 324.058 44.872C323.146 44.824 322.09 45.592 321.274 44.44C321.322 44.104 321.322 43.672 321.37 43.192C321.706 42.952 322.042 42.712 322.378 42.424L322.33 42.472C323.338 42.52 324.394 42.568 325.306 41.992C325.594 41.848 325.93 41.704 326.122 41.464C327.034 40.456 328.09 39.592 329.242 38.872C330.25 38.152 331.21 37.384 331.93 36.376C332.218 35.944 332.554 35.608 332.938 35.32C333.754 34.696 334.57 34.12 335.386 33.592C336.394 32.92 337.45 32.344 338.506 31.768C339.178 31.384 339.85 31.384 340.522 31.768C340.954 32.008 341.386 32.2 341.77 32.392C341.578 32.536 341.098 32.104 341.146 32.92L341.77 32.392C343.162 33.112 343.45 34.024 342.826 35.416C342.442 36.28 341.866 36.952 341.194 37.576C339.322 39.304 337.162 40.648 334.954 41.944C332.794 43.192 330.442 43.96 328.234 44.92C327.994 45.016 327.706 45.112 327.514 45.208C327.562 47.752 329.002 48.904 332.65 49.192C332.506 49.048 332.458 48.904 332.314 48.76C333.322 48.568 334.282 48.472 335.194 48.184C336.106 47.944 337.018 47.512 338.026 47.176C338.41 47.416 338.89 47.752 339.37 48.136C340.282 48.856 340.282 50.056 339.322 50.584C337.546 51.64 335.626 52.168 333.562 52.168H331.834ZM330.682 40.696C332.506 40.024 334.618 38.68 335.482 37.768L335.338 37.192C333.562 38.2 332.026 39.352 330.682 40.696ZM326.41 46.312C326.458 45.928 326.506 45.688 326.554 45.448C326.122 45.64 326.266 45.928 326.41 46.312Z" fill="#1C1A1A"/>
</svg>
